<svg width="263" height="272" viewBox="0 0 263 272" fill="none" xmlns="http://www.w3.org/2000/svg">
<rect x="7" y="16" width="256" height="256" fill="white"/>
<g filter="url(#filter0_i_3_4)">
<path d="M105.5 33.0318C123.755 22.4925 146.245 22.4925 164.5 33.0318L216.351 62.9682C234.606 73.5075 245.851 92.985 245.851 114.064V173.936C245.851 195.015 234.606 214.492 216.351 225.032L164.5 254.968C146.245 265.508 123.755 265.508 105.5 254.968L53.6487 225.032C35.3941 214.492 24.1488 195.015 24.1488 173.936V114.064C24.1488 92.985 35.3941 73.5075 53.6487 62.9682L105.5 33.0318Z" fill="#7137EE"/>
</g>
<g filter="url(#filter1_i_3_4)">
<path d="M78.821 190.64C75.6637 190.64 73.4023 189.957 72.037 188.592C70.6717 187.141 69.989 184.453 69.989 180.528C69.989 177.883 70.245 174.512 70.757 170.416C71.3543 166.235 72.293 160.517 73.573 153.264C75.7917 139.867 77.541 128.261 78.821 118.448C79.589 112.304 79.973 107.184 79.973 103.088C79.973 99.248 78.565 97.328 75.749 97.328C73.5303 97.328 70.8423 98.48 67.685 100.784C64.613 103.003 61.1997 106.587 57.445 111.536C56.2503 113.157 54.9277 113.968 53.477 113.968C52.2823 113.968 51.2157 113.413 50.277 112.304C49.4237 111.109 48.997 109.787 48.997 108.336C48.997 106.971 49.253 105.605 49.765 104.24C50.3623 102.789 51.301 101.168 52.581 99.376C56.677 93.6587 61.2423 89.264 66.277 86.192C71.3117 83.0347 76.3463 81.456 81.381 81.456C86.0743 81.456 89.6583 82.9493 92.133 85.936C94.693 88.9227 95.973 93.2747 95.973 98.992C95.973 101.296 95.7597 104.027 95.333 107.184C94.9063 110.256 94.5223 112.773 94.181 114.736C93.8397 116.699 93.5837 118.064 93.413 118.832C98.277 104.923 103.738 95.2373 109.797 89.776C115.856 84.2293 122.512 81.456 129.765 81.456C135.312 81.456 139.664 83.4187 142.821 87.344C146.064 91.2693 147.685 96.816 147.685 103.984C147.685 106.8 147.301 110.299 146.533 114.48C150.8 102.704 155.792 94.256 161.509 89.136C167.226 84.016 173.797 81.456 181.221 81.456C187.194 81.456 191.76 83.376 194.917 87.216C198.16 91.056 199.781 96.432 199.781 103.344C199.781 107.099 199.226 111.664 198.117 117.04L190.309 153.648C189.456 157.915 189.029 161.584 189.029 164.656C189.029 168.24 189.84 170.928 191.461 172.72C193.168 174.512 195.514 175.408 198.501 175.408C201.317 175.408 204.048 174.469 206.693 172.592C209.424 170.715 212.624 167.6 216.293 163.248C217.317 162.053 218.469 161.456 219.749 161.456C220.858 161.456 221.712 161.968 222.309 162.992C222.992 164.016 223.333 165.424 223.333 167.216C223.333 170.544 222.522 173.189 220.901 175.152C216.464 180.528 212.069 184.453 207.717 186.928C203.365 189.403 198.8 190.64 194.021 190.64C186.768 190.64 181.093 188.507 176.997 184.24C172.901 179.888 170.853 174.085 170.853 166.832C170.853 161.797 171.877 154.501 173.925 144.944L179.045 121.52C179.216 120.752 179.514 119.387 179.941 117.424C180.368 115.461 180.709 113.627 180.965 111.92C181.221 110.128 181.349 108.379 181.349 106.672C181.349 103.685 180.752 101.467 179.557 100.016C178.448 98.48 176.826 97.712 174.693 97.712C170.682 97.712 166.458 100.315 162.021 105.52C157.669 110.64 153.488 119.173 149.477 131.12C145.552 143.067 142.352 158.597 139.877 177.712C139.28 182.832 138.213 186.288 136.677 188.08C135.226 189.787 132.837 190.64 129.509 190.64C126.608 190.64 124.474 189.957 123.109 188.592C121.829 187.227 121.189 184.667 121.189 180.912C121.189 177.413 121.658 172.848 122.597 167.216C123.536 161.499 124.73 154.8 126.181 147.12C130.106 126.469 132.069 113.157 132.069 107.184C132.069 103.941 131.429 101.552 130.149 100.016C128.954 98.48 127.12 97.712 124.645 97.712C120.464 97.712 116.154 100.101 111.717 104.88C107.28 109.573 102.928 117.979 98.661 130.096C94.4797 142.128 90.981 158.427 88.165 178.992C87.5677 183.344 86.6717 186.373 85.477 188.08C84.3677 189.787 82.149 190.64 78.821 190.64Z" fill="white"/>
</g>
<defs>
<filter id="filter0_i_3_4" x="18.1487" y="11.1273" width="227.703" height="251.745" filterUnits="userSpaceOnUse" color-interpolation-filters="sRGB">
<feFlood flood-opacity="0" result="BackgroundImageFix"/>
<feBlend mode="normal" in="SourceGraphic" in2="BackgroundImageFix" result="shape"/>
<feColorMatrix in="SourceAlpha" type="matrix" values="0 0 0 0 0 0 0 0 0 0 0 0 0 0 0 0 0 0 127 0" result="hardAlpha"/>
<feOffset dx="-6" dy="-16"/>
<feGaussianBlur stdDeviation="7"/>
<feComposite in2="hardAlpha" operator="arithmetic" k2="-1" k3="1"/>
<feColorMatrix type="matrix" values="0 0 0 0 0.3 0 0 0 0 0.08125 0 0 0 0 0.173125 0 0 0 0.46 0"/>
<feBlend mode="normal" in2="shape" result="effect1_innerShadow_3_4"/>
</filter>
<filter id="filter1_i_3_4" x="48.997" y="81.456" width="174.336" height="112.184" filterUnits="userSpaceOnUse" color-interpolation-filters="sRGB">
<feFlood flood-opacity="0" result="BackgroundImageFix"/>
<feBlend mode="normal" in="SourceGraphic" in2="BackgroundImageFix" result="shape"/>
<feColorMatrix in="SourceAlpha" type="matrix" values="0 0 0 0 0 0 0 0 0 0 0 0 0 0 0 0 0 0 127 0" result="hardAlpha"/>
<feOffset dy="6"/>
<feGaussianBlur stdDeviation="1.5"/>
<feComposite in2="hardAlpha" operator="arithmetic" k2="-1" k3="1"/>
<feColorMatrix type="matrix" values="0 0 0 0 0 0 0 0 0 0 0 0 0 0 0 0 0 0 0.25 0"/>
<feBlend mode="normal" in2="shape" result="effect1_innerShadow_3_4"/>
</filter>
</defs>
</svg>
